<svg width="35" height="31" viewBox="0 0 35 31" fill="none" xmlns="http://www.w3.org/2000/svg">
<path d="M29.8173 5.17232L28.2693 6.4388L29.8173 5.17232ZM24.5949 3.00518L24.527 1.00634L24.5949 3.00518ZM28.7263 17.4497L30.2938 18.6918H30.2938L28.7263 17.4497ZM17.2388 27.7642L16.0231 29.3523C16.7405 29.9015 17.737 29.9016 18.4545 29.3524L17.2388 27.7642ZM5.75845 17.4551L4.19093 18.6973H4.19093L5.75845 17.4551ZM4.66746 5.17778L6.21537 6.44426L6.21537 6.44426L4.66746 5.17778ZM9.88982 3.01064L9.82196 5.00949L9.88982 3.01064ZM14.4669 5.827L12.8799 7.04415V7.04415L14.4669 5.827ZM16.7165 10.1154L18.6293 10.6997C18.7508 10.3016 18.7452 9.8756 18.6132 9.48092L16.7165 10.1154ZM16.6919 10.197L14.7749 9.62666C14.6237 10.1351 14.6806 10.6827 14.9331 11.1492C15.1857 11.6157 15.6132 11.9627 16.1216 12.1139L16.6919 10.197ZM16.7491 10.214L18.651 9.59539C18.4476 8.97 17.9497 8.48458 17.3194 8.29704L16.7491 10.214ZM16.8343 10.4876L14.9174 11.0579C15.0686 11.5664 15.4157 11.9939 15.8821 12.2464C16.3486 12.4989 16.8963 12.5558 17.4047 12.4046L16.8343 10.4876ZM17.2515 10.3635L17.8219 8.44654C17.4497 8.33581 17.0534 8.33581 16.6812 8.44654L17.2515 10.3635ZM17.6504 10.4822L17.08 12.3991C18.1387 12.7141 19.2523 12.1112 19.5673 11.0525L17.6504 10.4822ZM17.7317 10.2206L17.1614 8.30367C16.5304 8.49142 16.0321 8.97771 15.8292 9.60401L17.7317 10.2206ZM17.7928 10.2025L18.3632 12.1194C19.4219 11.8044 20.0248 10.6908 19.7098 9.63212L17.7928 10.2025ZM17.7665 10.1151L15.8695 9.4815C15.7376 9.87628 15.7322 10.3024 15.854 10.7004L17.7665 10.1151ZM20.0178 5.82154L18.4308 4.60439V4.60439L20.0178 5.82154ZM17.2412 8.68043L15.3984 9.45755C15.7109 10.1988 16.4371 10.6806 17.2416 10.6804C18.046 10.6803 18.772 10.1982 19.0843 9.4569L17.2412 8.68043ZM19.2243 5.21296L20.8113 6.43011V6.43011L19.2243 5.21296ZM24.561 2.00576L24.4931 0.00691175L24.561 2.00576ZM30.5912 4.53909L29.0433 5.80556L29.0433 5.80556L30.5912 4.53909ZM29.51 18.0708L31.0775 19.3129V19.3129L29.51 18.0708ZM17.4742 28.8428L15.8835 30.055C16.205 30.4769 16.6809 30.7538 17.2066 30.8248C17.7323 30.8957 18.2646 30.755 18.6865 30.4335L17.4742 28.8428ZM17.2444 28.5413L18.8352 27.329C18.4569 26.8326 17.8685 26.5413 17.2444 26.5413C16.6203 26.5413 16.032 26.8326 15.6537 27.329L17.2444 28.5413ZM17.0105 28.8482L15.7982 30.4389C16.2201 30.7604 16.7524 30.9012 17.2781 30.8302C17.8038 30.7593 18.2797 30.4824 18.6012 30.0605L17.0105 28.8482ZM4.97469 18.0762L3.40717 19.3183L4.97469 18.0762ZM3.8935 4.54455L5.44141 5.81102L5.44141 5.81102L3.8935 4.54455ZM9.92375 2.01122L9.85589 4.01007L9.92375 2.01122ZM15.2604 5.21842L13.6734 6.43557L13.6734 6.43557L15.2604 5.21842ZM31.3652 3.90585C29.8456 2.0486 27.5381 0.904108 24.527 1.00634L24.6627 5.00403C26.4815 4.94229 27.5734 5.58824 28.2693 6.4388L31.3652 3.90585ZM33.4847 10.3396C33.4847 8.07749 32.8442 5.71351 31.3652 3.90585L28.2693 6.4388C29.0328 7.37197 29.4847 8.77074 29.4847 10.3396H33.4847ZM30.2938 18.6918C32.6708 15.6921 33.4847 13.1504 33.4847 10.3396H29.4847C29.4847 12.1542 29.0371 13.8371 27.1587 16.2076L30.2938 18.6918ZM18.4545 29.3524C24.3011 24.877 28.0255 21.5543 30.2938 18.6918L27.1587 16.2076C25.2188 18.6557 21.8351 21.7273 16.0231 26.1761L18.4545 29.3524ZM18.4545 26.1762C12.6469 21.7302 9.26508 18.6601 7.32597 16.213L4.19093 18.6973C6.45832 21.5587 10.1806 24.8798 16.0231 29.3523L18.4545 26.1762ZM7.32597 16.213C5.44759 13.8426 5 12.1596 5 10.345H1C1 13.1559 1.81395 15.6976 4.19093 18.6973L7.32597 16.213ZM5 10.345C5 8.7762 5.45187 7.37743 6.21537 6.44426L3.11954 3.91131C1.64054 5.71897 1 8.08295 1 10.345H5ZM6.21537 6.44426C6.91128 5.5937 8.00325 4.94775 9.82196 5.00949L9.95769 1.0118C6.94662 0.909569 4.63911 2.05406 3.11954 3.91131L6.21537 6.44426ZM9.82196 5.00949C10.7855 5.04221 11.8324 5.67835 12.8799 7.04415L16.0539 4.60985C14.6917 2.83376 12.661 1.10358 9.95769 1.0118L9.82196 5.00949ZM12.8799 7.04415C13.7977 8.24077 14.4651 9.68937 14.8198 10.7498L18.6132 9.48092C18.1547 8.11028 17.3037 6.23943 16.0539 4.60985L12.8799 7.04415ZM18.6088 10.7673C18.6155 10.7451 18.6223 10.7225 18.6293 10.6997L14.8038 9.53105C14.794 9.56313 14.7844 9.59501 14.7749 9.62666L18.6088 10.7673ZM17.3194 8.29704L17.2622 8.28004L16.1216 12.1139L16.1787 12.131L17.3194 8.29704ZM14.8471 10.8326C14.8728 10.9114 14.8962 10.9866 14.9174 11.0579L18.7513 9.91729C18.7201 9.81243 18.6866 9.70501 18.651 9.59539L14.8471 10.8326ZM17.4047 12.4046L17.8219 12.2805L16.6812 8.44654L16.264 8.57066L17.4047 12.4046ZM18.2207 8.5652L17.8219 8.44654L16.6812 12.2805L17.08 12.3991L18.2207 8.5652ZM15.8292 9.60401C15.7952 9.70876 15.7633 9.81147 15.7334 9.91182L19.5673 11.0525C19.5876 10.9842 19.6099 10.9124 19.6343 10.8372L15.8292 9.60401ZM18.3021 12.1376L18.3632 12.1194L17.2225 8.2855L17.1614 8.30367L18.3021 12.1376ZM19.7098 9.63212C19.6997 9.59815 19.6894 9.56405 19.6789 9.52984L15.854 10.7004C15.8615 10.725 15.8688 10.7492 15.8759 10.7728L19.7098 9.63212ZM18.4308 4.60439C17.1793 6.23623 16.3275 8.11011 15.8695 9.4815L19.6634 10.7487C20.0177 9.68813 20.6857 8.23709 21.6048 7.03869L18.4308 4.60439ZM24.527 1.00634C21.8237 1.09811 19.793 2.8283 18.4308 4.60439L21.6048 7.03869C22.6523 5.67289 23.6992 5.03675 24.6627 5.00403L24.527 1.00634ZM19.0843 9.4569C19.4988 8.4731 20.0822 7.38075 20.8113 6.43011L17.6373 3.99581C16.6535 5.27863 15.9111 6.68613 15.3981 7.90395L19.0843 9.4569ZM20.8113 6.43011C21.9386 4.96025 23.2315 4.05205 24.6288 4.00461L24.4931 0.00691175C21.3528 0.113528 19.0762 2.11976 17.6373 3.99581L20.8113 6.43011ZM24.6288 4.00461C26.7459 3.93273 28.1416 4.70352 29.0433 5.80556L32.1391 3.27261C30.4134 1.16336 27.8018 -0.105421 24.4931 0.00691175L24.6288 4.00461ZM29.0433 5.80556C29.9855 6.9571 30.4847 8.59702 30.4847 10.3396H34.4847C34.4847 7.90487 33.7974 5.29933 32.1391 3.27261L29.0433 5.80556ZM30.4847 10.3396C30.4847 12.4031 29.9456 14.3008 27.9425 16.8286L31.0775 19.3129C33.579 16.1561 34.4847 13.3997 34.4847 10.3396H30.4847ZM27.9425 16.8286C25.8774 19.4347 22.3043 22.6472 16.2619 27.252L18.6865 30.4335C24.7588 25.8058 28.6794 22.3393 31.0775 19.3129L27.9425 16.8286ZM19.0649 27.6305L18.8352 27.329L15.6537 29.7535L15.8835 30.055L19.0649 27.6305ZM18.6012 30.0605L18.8352 29.7535L15.6537 27.329L15.4198 27.6359L18.6012 30.0605ZM3.40717 19.3183C5.80532 22.3447 9.72588 25.8112 15.7982 30.4389L18.2228 27.2575C12.1804 22.6527 8.60731 19.4402 6.54221 16.8341L3.40717 19.3183ZM0 10.345C0 13.4052 0.905688 16.1615 3.40717 19.3183L6.54221 16.8341C4.5391 14.3062 4 12.4086 4 10.345H0ZM2.34558 3.27807C0.687356 5.3048 0 7.91033 0 10.345H4C4 8.60248 4.49924 6.96256 5.44141 5.81102L2.34558 3.27807ZM9.99162 0.0123724C6.68291 -0.0999603 4.07134 1.16882 2.34558 3.27807L5.44141 5.81102C6.34308 4.70898 7.73883 3.93819 9.85589 4.01007L9.99162 0.0123724ZM16.8474 4.00127C15.4085 2.12522 13.1319 0.118988 9.99162 0.0123724L9.85589 4.01007C11.2532 4.05751 12.5461 4.96571 13.6734 6.43557L16.8474 4.00127ZM19.0841 7.90331C18.5711 6.68697 17.8296 5.282 16.8474 4.00127L13.6734 6.43557C14.4013 7.38461 14.984 8.47492 15.3984 9.45755L19.0841 7.90331Z" fill="#FF9999"/>
</svg>
